<svg width="56" height="62" viewBox="0 0 56 62" fill="none" xmlns="http://www.w3.org/2000/svg">
<g id="Frame 112">
<path id="Vector" d="M54.9696 12.0466C54.9701 11.3878 54.8406 10.7354 54.5886 10.1267C54.3366 9.51795 53.967 8.96492 53.501 8.49924C53.035 8.03357 52.4816 7.66439 51.8727 7.41285C51.2638 7.16131 50.6113 7.03235 49.9525 7.03336H6.01995C5.36113 7.03235 4.70858 7.16131 4.09967 7.41285C3.49076 7.66439 2.93743 8.03357 2.4714 8.49924C2.00536 8.96492 1.63577 9.51795 1.38376 10.1267C1.13176 10.7354 1.0023 11.3878 1.00281 12.0466V18.5268H54.9696V12.0466Z" stroke="white" stroke-width="1.5" stroke-linecap="round" stroke-linejoin="round"/>
<path id="Vector_2" d="M38.542 10.2352C38.5663 10.8349 38.8217 11.402 39.2547 11.8177C39.6876 12.2334 40.2646 12.4656 40.8648 12.4656C41.465 12.4656 42.042 12.2334 42.475 11.8177C42.9079 11.402 43.1633 10.8349 43.1876 10.2352V3.23038C43.1633 2.63066 42.9079 2.06359 42.475 1.64787C42.042 1.23215 41.465 1 40.8648 1C40.2646 1 39.6876 1.23215 39.2547 1.64787C38.8217 2.06359 38.5663 2.63066 38.542 3.23038V10.2352Z" fill="white" stroke="white" stroke-width="1.5" stroke-linecap="round" stroke-linejoin="round"/>
<path id="Vector_3" d="M25.667 10.2352C25.6913 10.8349 25.9467 11.402 26.3797 11.8177C26.8126 12.2334 27.3896 12.4656 27.9898 12.4656C28.59 12.4656 29.167 12.2334 29.6 11.8177C30.0329 11.402 30.2883 10.8349 30.3126 10.2352V3.23038C30.2883 2.63066 30.0329 2.06359 29.6 1.64787C29.167 1.23215 28.59 1 27.9898 1C27.3896 1 26.8126 1.23215 26.3797 1.64787C25.9467 2.06359 25.6913 2.63066 25.667 3.23038V10.2352Z" fill="white" stroke="white" stroke-width="1.5" stroke-linecap="round" stroke-linejoin="round"/>
<path id="Vector_4" d="M12.792 10.2352C12.8163 10.8349 13.0717 11.402 13.5047 11.8177C13.9376 12.2334 14.5146 12.4656 15.1148 12.4656C15.715 12.4656 16.292 12.2334 16.725 11.8177C17.1579 11.402 17.4133 10.8349 17.4376 10.2352V3.23038C17.4133 2.63066 17.1579 2.06359 16.725 1.64787C16.292 1.23215 15.715 1 15.1148 1C14.5146 1 13.9376 1.23215 13.5047 1.64787C13.0717 2.06359 12.8163 2.63066 12.792 3.23038V10.2352Z" fill="white" stroke="white" stroke-width="1.5" stroke-linecap="round" stroke-linejoin="round"/>
<path id="Vector_5" d="M12.9184 30.9049H5.52673V23.5094H12.9184V30.9049Z" stroke="white" stroke-width="1.5" stroke-linecap="round" stroke-linejoin="round"/>
<path id="Vector_6" d="M25.6947 30.9049H18.2993V23.5094H25.6947V30.9049Z" stroke="white" stroke-width="1.5" stroke-linecap="round" stroke-linejoin="round"/>
<path id="Vector_7" d="M38.47 30.9049H31.0745V23.5094H38.47V30.9049Z" stroke="white" stroke-width="1.5" stroke-linecap="round" stroke-linejoin="round"/>
<path id="Vector_8" d="M51.2472 30.9049H43.8632V23.5094H51.2587L51.2472 30.9049Z" stroke="white" stroke-width="1.5" stroke-linecap="round" stroke-linejoin="round"/>
<path id="Vector_9" d="M12.9184 49.0815V56.4769H5.52673V49.0815H12.9184Z" stroke="white" stroke-width="1.5" stroke-linecap="round" stroke-linejoin="round"/>
<path id="Vector_10" d="M12.9184 36.2859V43.6813H5.52673V36.2859H12.9184Z" stroke="white" stroke-width="1.5" stroke-linecap="round" stroke-linejoin="round"/>
<path id="Vector_11" d="M25.6936 49.0815V56.4769H18.3019V49.0815H25.6936Z" stroke="white" stroke-width="1.5" stroke-linecap="round" stroke-linejoin="round"/>
<path id="Vector_12" d="M25.6936 36.2859V43.6813H18.3019V36.2859H25.6936Z" stroke="white" stroke-width="1.5" stroke-linecap="round" stroke-linejoin="round"/>
<path id="Vector_13" d="M38.4702 49.0815V56.4769H31.0786V49.0815H38.4702Z" stroke="white" stroke-width="1.5" stroke-linecap="round" stroke-linejoin="round"/>
<path id="Vector_14" d="M38.4702 36.2859V43.6813H31.0786V36.2859H38.4702Z" stroke="white" stroke-width="1.5" stroke-linecap="round" stroke-linejoin="round"/>
<path id="Vector_15" d="M51.2472 36.2859V43.6813H43.8632V36.2859H51.2472Z" stroke="white" stroke-width="1.5" stroke-linecap="round" stroke-linejoin="round"/>
<path id="Vector_16" d="M6.01996 61H49.9563C50.6156 61 51.2685 60.8699 51.8775 60.6173C52.4865 60.3646 53.0396 59.9943 53.5053 59.5276C53.971 59.0608 54.34 58.5068 54.5913 57.8972C54.8426 57.2877 54.9711 56.6345 54.9696 55.9752V18.5268H1.00282V55.9752C1.00131 56.6349 1.12999 57.2883 1.3815 57.8981C1.633 58.5079 2.00238 59.0621 2.46847 59.5289C2.93455 59.9957 3.48818 60.366 4.09761 60.6184C4.70705 60.8708 5.36031 61.0005 6.01996 61Z" stroke="white" stroke-width="1.5" stroke-linecap="round" stroke-linejoin="round"/>
</g>
</svg>
