<svg width="62" height="56" viewBox="0 0 62 56" fill="none" xmlns="http://www.w3.org/2000/svg">
<g id="Frame 111">
<g id="Group">
<path id="Vector" d="M24.5206 1.00003H6.34828L0.999313 6.22495H19.1767L24.5206 1.00003Z" stroke="white" stroke-width="1.45805" stroke-linecap="round" stroke-linejoin="round"/>
<path id="Vector_2" d="M19.1767 6.22495H0.999313V24.3996H19.1767V6.22495Z" stroke="white" stroke-width="1.45805" stroke-linecap="round" stroke-linejoin="round"/>
<path id="Vector_3" d="M24.5215 19.1747L19.1776 24.3996V6.22495L24.5215 1.00003V19.1747Z" stroke="white" stroke-width="1.45805" stroke-linecap="round" stroke-linejoin="round"/>
<path id="Vector_4" d="M55.6548 6.22491H37.4774V24.3995H55.6548V6.22491Z" stroke="white" stroke-width="1.45805" stroke-linecap="round" stroke-linejoin="round"/>
<path id="Vector_5" d="M60.9987 1.00003H42.8213L37.4774 6.22495H55.6548L60.9987 1.00003Z" stroke="white" stroke-width="1.45805" stroke-linecap="round" stroke-linejoin="round"/>
<path id="Vector_6" d="M60.9996 19.1747L55.6557 24.3996V6.22495L60.9996 1.00003V19.1747Z" stroke="white" stroke-width="1.45805" stroke-linecap="round" stroke-linejoin="round"/>
<path id="Vector_7" d="M38.8873 31.2894H20.7074L15.3634 36.5143H33.5383L38.8873 31.2894Z" stroke="white" stroke-width="1.45805" stroke-linecap="round" stroke-linejoin="round"/>
<path id="Vector_8" d="M33.539 36.5143H15.3616V54.689H33.539V36.5143Z" stroke="white" stroke-width="1.45805" stroke-linecap="round" stroke-linejoin="round"/>
<path id="Vector_9" d="M38.8869 49.4641L33.538 54.689V36.5144L38.8869 31.2895V49.4641Z" stroke="white" stroke-width="1.45805" stroke-linecap="round" stroke-linejoin="round"/>
</g>
</g>
</svg>
