<svg width="44" height="60" viewBox="0 0 44 60" fill="none" xmlns="http://www.w3.org/2000/svg">
<g id="Frame 110">
<g id="Group">
<g id="Group_2">
<path id="Vector" d="M37.6763 59.25H5.36067C2.81291 59.25 0.747009 57.1846 0.747009 54.6363V5.3637C0.747009 2.81591 2.81244 0.75 5.36067 0.75H37.6763C40.2241 0.75 42.29 2.81544 42.29 5.3637V54.6362C42.29 54.6362 42.29 54.6362 42.29 54.6363C42.2894 57.1842 40.2238 59.25 37.6763 59.25Z" stroke="white" stroke-width="1.5"/>
<path id="Vector_2" d="M37.177 18.9941H5.52681C5.07145 18.9941 4.70258 18.6252 4.70258 18.1698V7.60904C4.70258 7.15405 5.07163 6.78479 5.52681 6.78479H37.177C37.6324 6.78479 38.0013 7.15366 38.0013 7.60904V18.1698C38.0013 18.6248 37.6322 18.9941 37.177 18.9941Z" stroke="white" stroke-width="1.5"/>
<g id="Group_3">
<path id="Vector_3" d="M9.71125 27.3068H6.3495C6.16884 27.3068 6.02234 27.1603 6.02234 26.9796V23.6178C6.02234 23.4371 6.16884 23.2906 6.3495 23.2906H9.71125C9.89193 23.2906 10.0384 23.4371 10.0384 23.6178L10.0384 26.9789C10.0384 26.979 10.0384 26.9791 10.0384 26.9792C10.0381 27.1613 9.89142 27.3068 9.71125 27.3068Z" stroke="white" stroke-width="1.5"/>
<path id="Vector_4" d="M9.71125 36.4196H6.3495C6.16884 36.4196 6.02234 36.2731 6.02234 36.0924V32.7306C6.02234 32.5499 6.16883 32.4034 6.3495 32.4034H9.71125C9.89193 32.4034 10.0384 32.5499 10.0384 32.7306L10.0384 36.0917C10.0384 36.0918 10.0384 36.0919 10.0384 36.092C10.0381 36.2737 9.89116 36.4196 9.71125 36.4196Z" stroke="white" stroke-width="1.5"/>
<path id="Vector_5" d="M9.71125 45.0523H6.3495C6.16884 45.0523 6.02234 44.9058 6.02234 44.7251V41.3634C6.02234 41.1827 6.16884 41.0362 6.3495 41.0362H9.71125C9.89192 41.0362 10.0384 41.1827 10.0384 41.3634L10.0384 44.7244C10.0384 44.7245 10.0384 44.7246 10.0384 44.7248C10.0381 44.9065 9.89116 45.0523 9.71125 45.0523Z" stroke="white" stroke-width="1.5"/>
<path id="Vector_6" d="M9.71125 53.6851H6.3495C6.16884 53.6851 6.02234 53.5386 6.02234 53.3579V49.9961C6.02234 49.8155 6.16883 49.669 6.3495 49.669H9.71125C9.89193 49.669 10.0384 49.8155 10.0384 49.9961L10.0384 53.3572C10.0384 53.3573 10.0384 53.3574 10.0384 53.3575C10.0381 53.5393 9.89116 53.6851 9.71125 53.6851Z" stroke="white" stroke-width="1.5"/>
<path id="Vector_7" d="M18.3439 27.3068H14.9822C14.8015 27.3068 14.655 27.1603 14.655 26.9796V23.6178C14.655 23.4371 14.8015 23.2906 14.9822 23.2906H18.3439C18.5246 23.2906 18.6711 23.4371 18.6711 23.6178L18.6711 26.9789C18.6711 26.979 18.6711 26.9791 18.6711 26.9792C18.6708 27.1613 18.5241 27.3068 18.3439 27.3068Z" stroke="white" stroke-width="1.5"/>
<path id="Vector_8" d="M18.3439 36.4195H14.9822C14.8015 36.4195 14.655 36.273 14.655 36.0923V32.7305C14.655 32.5499 14.8015 32.4034 14.9822 32.4034H18.3439C18.5246 32.4034 18.6711 32.5499 18.6711 32.7305L18.6711 36.0916C18.6711 36.0917 18.6711 36.0918 18.6711 36.0919C18.6708 36.2737 18.5238 36.4195 18.3439 36.4195Z" stroke="white" stroke-width="1.5"/>
<path id="Vector_9" d="M18.3439 45.0524H14.9822C14.8015 45.0524 14.655 44.9059 14.655 44.7252V41.3634C14.655 41.1828 14.8015 41.0363 14.9822 41.0363H18.3439C18.5246 41.0363 18.6711 41.1828 18.6711 41.3634L18.6711 44.7245C18.6711 44.7246 18.6711 44.7247 18.6711 44.7248C18.6708 44.9066 18.5238 45.0524 18.3439 45.0524Z" stroke="white" stroke-width="1.5"/>
<path id="Vector_10" d="M18.3439 53.6851H14.9822C14.8015 53.6851 14.655 53.5386 14.655 53.3579V49.9962C14.655 49.8155 14.8015 49.669 14.9822 49.669H18.3439C18.5246 49.669 18.6711 49.8155 18.6711 49.9962L18.6711 53.3572C18.6711 53.3573 18.6711 53.3574 18.6711 53.3575C18.6708 53.5393 18.5238 53.6851 18.3439 53.6851Z" stroke="white" stroke-width="1.5"/>
<path id="Vector_11" d="M26.9774 27.3068H23.6162C23.4355 27.3068 23.289 27.1603 23.289 26.9796V23.6178C23.289 23.4371 23.4355 23.2906 23.6162 23.2906H26.9774C27.158 23.2906 27.3045 23.4371 27.3045 23.6178L27.3045 26.9789C27.3045 26.979 27.3045 26.9791 27.3045 26.9792C27.3042 27.1613 27.1575 27.3068 26.9774 27.3068Z" stroke="white" stroke-width="1.5"/>
<path id="Vector_12" d="M26.9774 36.4195H23.6162C23.4355 36.4195 23.289 36.273 23.289 36.0923V32.7305C23.289 32.5499 23.4355 32.4034 23.6162 32.4034H26.9774C27.158 32.4034 27.3045 32.5498 27.3045 32.7305L27.3045 36.0916C27.3045 36.0917 27.3045 36.0918 27.3045 36.0919C27.3042 36.2737 27.1572 36.4195 26.9774 36.4195Z" stroke="white" stroke-width="1.5"/>
<path id="Vector_13" d="M26.9774 45.0524H23.6162C23.4355 45.0524 23.289 44.9059 23.289 44.7252V41.3634C23.289 41.1828 23.4355 41.0363 23.6162 41.0363H26.9774C27.158 41.0363 27.3045 41.1827 27.3045 41.3634L27.3045 44.7245C27.3045 44.7246 27.3045 44.7247 27.3045 44.7248C27.3042 44.9066 27.1572 45.0524 26.9774 45.0524Z" stroke="white" stroke-width="1.5"/>
<path id="Vector_14" d="M26.9774 53.6851H23.6162C23.4355 53.6851 23.289 53.5386 23.289 53.3579V49.9962C23.289 49.8155 23.4355 49.669 23.6162 49.669H26.9774C27.158 49.669 27.3045 49.8155 27.3045 49.9962L27.3045 53.3572C27.3045 53.3573 27.3045 53.3574 27.3045 53.3575C27.3042 53.5393 27.1572 53.6851 26.9774 53.6851Z" stroke="white" stroke-width="1.5"/>
<path id="Vector_15" d="M35.6087 27.3068H32.2475C32.0668 27.3068 31.9203 27.1603 31.9203 26.9796V23.6178C31.9203 23.4371 32.0668 23.2907 32.2475 23.2907H35.6087C35.7894 23.2907 35.9359 23.4372 35.9359 23.6178L35.9359 26.9789C35.9359 26.979 35.9359 26.9791 35.9359 26.9792C35.9355 27.1613 35.7889 27.3068 35.6087 27.3068Z" stroke="white" stroke-width="1.5"/>
<path id="Vector_16" d="M35.6087 36.4195H32.2475C32.0669 36.4195 31.9203 36.273 31.9203 36.0923V32.7305C31.9203 32.5499 32.0668 32.4034 32.2475 32.4034H35.6087C35.7894 32.4034 35.9359 32.5499 35.9359 32.7305L35.9359 36.0916C35.9359 36.0917 35.9359 36.0918 35.9359 36.0919C35.9355 36.2737 35.7886 36.4195 35.6087 36.4195Z" stroke="white" stroke-width="1.5"/>
<path id="Vector_17" d="M35.6087 45.0524H32.2475C32.0669 45.0524 31.9203 44.9059 31.9203 44.7252V41.3635C31.9203 41.1828 32.0669 41.0363 32.2475 41.0363H35.6087C35.7894 41.0363 35.9359 41.1828 35.9359 41.3635L35.9359 44.7245C35.9359 44.7246 35.9359 44.7247 35.9359 44.7248C35.9355 44.9066 35.7886 45.0524 35.6087 45.0524Z" stroke="white" stroke-width="1.5"/>
<path id="Vector_18" d="M35.6087 53.6851H32.2475C32.0669 53.6851 31.9203 53.5386 31.9203 53.3579V49.9962C31.9203 49.8155 32.0668 49.669 32.2475 49.669H35.6087C35.7894 49.669 35.9359 49.8155 35.9359 49.9962L35.9359 53.3572C35.9359 53.3573 35.9359 53.3575 35.9359 53.3576C35.9355 53.5393 35.7886 53.6851 35.6087 53.6851Z" stroke="white" stroke-width="1.5"/>
</g>
</g>
</g>
</g>
</svg>
