<svg width="40" height="40" viewBox="0 0 40 40" fill="none" xmlns="http://www.w3.org/2000/svg">
<path fill-rule="evenodd" clip-rule="evenodd" d="M20 0C8.9543 0 0 8.9543 0 20C0 31.0457 8.9543 40 20 40C31.0457 40 40 31.0457 40 20C40 8.9543 31.0457 0 20 0ZM12.4208 8.66666H28.2455C29.58 8.66666 30.6665 9.74 30.6665 11.07V32L28.1275 29.7833L26.6985 28.4767L25.1869 27.0883L25.8128 29.2467H12.4208C11.0863 29.2467 9.99983 28.1733 9.99983 26.8433V11.07C9.99983 9.74 11.0863 8.66666 12.4208 8.66666Z" fill="#BABABA"/>
<path fill-rule="evenodd" clip-rule="evenodd" d="M23.6872 23.9034C23.6872 23.9034 23.262 23.4017 22.9077 22.9584C24.4548 22.5267 25.0453 21.57 25.0453 21.57C24.5611 21.885 24.1005 22.1067 23.6872 22.2584C23.0967 22.5034 22.5298 22.6667 21.9748 22.76C20.8411 22.97 19.8018 22.9117 18.9161 22.7484C18.243 22.62 17.6643 22.4334 17.1801 22.2467C16.9085 22.1417 16.6133 22.0134 16.318 21.85C16.3003 21.8384 16.2826 21.8296 16.2649 21.8209C16.2472 21.8121 16.2295 21.8034 16.2117 21.7917C16.1881 21.78 16.1763 21.7684 16.1645 21.7567C15.9519 21.64 15.8338 21.5584 15.8338 21.5584C15.8338 21.5584 16.4007 22.4917 17.9005 22.935C17.5462 23.3784 17.1093 23.9034 17.1093 23.9034C14.4994 23.8217 13.5074 22.13 13.5074 22.13C13.5074 18.3734 15.2079 15.3284 15.2079 15.3284C16.9085 14.0684 18.5264 14.1034 18.5264 14.1034L18.6445 14.2434C16.5188 14.85 15.5386 15.7717 15.5386 15.7717C15.5386 15.7717 15.7984 15.6317 16.2354 15.4334C17.499 14.885 18.5028 14.7334 18.9161 14.6984L18.9426 14.6939C19.0022 14.6839 19.055 14.675 19.1169 14.675C19.8373 14.5817 20.6521 14.5584 21.5024 14.6517C22.6243 14.78 23.8289 15.1067 25.0571 15.7717C25.0571 15.7717 24.1241 14.8967 22.1165 14.29L22.2818 14.1034C22.2818 14.1034 23.8997 14.0684 25.6003 15.3284C25.6003 15.3284 27.3009 18.3734 27.3009 22.13C27.3009 22.13 26.2971 23.8217 23.6872 23.9034ZM18.5282 18.6667C17.8604 18.6667 17.3331 19.2673 17.3331 20C17.3331 20.7327 17.8721 21.3333 18.5282 21.3333C19.1961 21.3333 19.7233 20.7327 19.7233 20C19.735 19.2673 19.1961 18.6667 18.5282 18.6667ZM21.6098 20C21.6098 19.2673 22.137 18.6667 22.8048 18.6667C23.4727 18.6667 23.9999 19.2673 23.9999 20C23.9999 20.7327 23.4727 21.3333 22.8048 21.3333C22.1487 21.3333 21.6098 20.7327 21.6098 20Z" fill="#BABABA"/>
</svg>
