<svg width="60" height="60" viewBox="0 0 60 60" fill="none" xmlns="http://www.w3.org/2000/svg">
<g id="Frame 113">
<path id="Vector" opacity="0.1" d="M29.8406 3.3188C15.1054 3.40835 3.23276 15.426 3.32232 30.1612C3.41187 44.8964 15.4296 56.7699 30.1648 56.6795C44.9 56.5892 56.7734 44.5723 56.6839 29.8371C56.5943 15.1019 44.5766 3.22924 29.8406 3.3188ZM30.1378 52.1986C17.8776 52.2731 7.87769 42.3945 7.80319 30.1343C7.7287 17.8741 17.6074 7.87496 29.8684 7.80046C42.1294 7.72596 52.1277 17.6086 52.2022 29.8648C52.2767 42.121 42.398 52.1241 30.1378 52.1986Z" fill="#272525"/>
<path id="Vector_2" d="M4.6602 30.1476C4.74376 43.8553 15.6898 54.9494 29.2852 55.3283V55.3463L30.1558 55.341C44.1515 55.2565 55.4283 43.8461 55.3437 29.8478C55.2592 15.8497 43.8473 4.57217 29.8481 4.65751C15.8494 4.74284 4.57486 16.1483 4.6602 30.1476ZM1.44961 30.1727C1.35422 14.4041 14.0599 1.5431 29.8285 1.44693L29.8285 1.44693C45.5979 1.35157 58.4582 14.058 58.5543 29.8266C58.6505 45.5951 45.9449 58.4554 30.1754 58.5516C14.406 58.6477 1.54499 45.9413 1.44961 30.1727Z" stroke="white" stroke-width="1.73077"/>
<path id="Vector_3" d="M39.7916 31.4229C39.0662 30.4687 37.9622 29.729 36.4797 29.2038C37.3942 28.6755 38.0811 28.0066 38.5402 27.1972C38.9994 26.3878 39.2265 25.4412 39.2218 24.3576C39.2091 22.2067 38.4385 20.5707 36.91 19.4496C35.3815 18.3284 33.1657 17.7766 30.2624 17.794L29.2147 17.8004C29.2084 16.8256 29.2023 15.851 29.1965 14.8768C29.1917 13.9812 27.5702 13.9915 27.5758 14.8871C27.5821 15.8613 27.5882 16.8356 27.594 17.8099L26.54 17.8162C26.5347 16.8419 26.5289 15.8677 26.5225 14.8934C26.517 13.9979 24.8963 14.0074 24.901 14.9029C24.9074 15.8777 24.9135 16.8522 24.9193 17.8265L20.6651 17.8519C20.1991 17.855 19.8435 17.9842 19.5983 18.2394C19.3532 18.4946 19.2319 18.8618 19.2346 19.341C19.2383 19.9026 19.3915 20.2889 19.6942 20.4997C19.997 20.7105 20.6759 20.8124 21.731 20.8056L22.4094 20.8008L22.5219 39.3179L21.8435 39.3218C20.7065 39.3287 19.9877 39.4323 19.6871 39.6325C19.3865 39.8328 19.238 40.2074 19.2417 40.7563C19.2449 41.2492 19.3669 41.6191 19.6078 41.8658C19.8488 42.1126 20.2102 42.2327 20.692 42.2264L25.0699 42.1995C25.0751 43.1737 25.0809 44.148 25.0873 45.1223C25.0928 46.0186 26.7135 46.0083 26.708 45.1127C26.7022 44.139 26.6964 43.1647 26.6905 42.19L27.7438 42.1836C27.7501 43.1574 27.7562 44.1316 27.762 45.1064C27.7676 46.0019 29.3883 45.9924 29.3827 45.0969C29.3764 44.1221 29.3703 43.1476 29.3645 42.1733H29.8986L31.6659 42.1622C33.1733 42.1538 34.3375 42.061 35.1586 41.884C35.9434 41.7216 36.6976 41.4362 37.3934 41.0384C38.5125 40.3743 39.3774 39.5266 39.9881 38.4953C40.5989 37.4613 40.9118 36.2786 40.8924 35.0779C40.8818 33.5965 40.5149 32.3781 39.7916 31.4229ZM30.7316 20.7501C32.3208 20.7401 33.5421 21.0571 34.3954 21.7011C35.2486 22.3452 35.679 23.2793 35.6864 24.5034C35.6943 25.7915 35.2309 26.7465 34.2963 27.3684C33.3617 27.9902 31.9217 28.3072 29.9763 28.3194H29.2773C29.262 25.7987 29.2467 23.2777 29.2313 20.7564L30.7316 20.7501ZM27.6107 20.7691C27.626 23.2893 27.6413 25.81 27.6566 28.3313L26.6034 28.3384C26.5875 25.8166 26.5722 23.2956 26.5574 20.7755L27.6107 20.7691ZM26.6699 39.2917C26.6525 36.4831 26.6353 33.6744 26.6184 30.8657L27.6717 30.8594C27.6891 33.6681 27.7063 36.4767 27.7232 39.2854L26.6699 39.2917ZM35.7498 38.2615C34.6984 38.9166 32.8851 39.2526 30.31 39.2695L29.3439 39.2759C29.3275 36.4672 29.3106 33.6586 29.2932 30.8499L30.4637 30.8435C32.9998 30.8282 34.7726 31.1394 35.7823 31.7771C36.7919 32.4148 37.302 33.4942 37.3126 35.0153C37.3221 36.5222 36.8012 37.6039 35.7498 38.2607V38.2615Z" fill="white"/>
</g>
</svg>
