<svg width="60" height="60" viewBox="0 0 60 60" fill="none" xmlns="http://www.w3.org/2000/svg">
<g id="Group 12">
<g id="Group 10">
<path id="Vector" d="M35.1053 15.2526L32.7725 14.6343L31.7141 18.6134L34.0469 19.2317L35.1053 15.2526Z" fill="#FFB24B"/>
<path id="Vector_2" d="M28.2766 40.9279L25.9438 40.3096L24.8853 44.2887L27.2181 44.907L28.2766 40.9279Z" fill="#FFB24B"/>
<path id="Vector_3" d="M39.651 26.9463L40.2704 24.6177L23.6369 20.2091L23.0175 22.5377L39.651 26.9463Z" fill="#FFB24B"/>
<path id="Vector_4" d="M38.0133 33.0952L38.6327 30.7666L21.9992 26.3581L21.3798 28.6867L38.0133 33.0952Z" fill="#FFB24B"/>
<path id="Vector_5" d="M36.4245 39.0713L37.0439 36.7427L20.4104 32.3341L19.791 34.6627L36.4245 39.0713Z" fill="#FFB24B"/>
</g>
<g id="Group 11">
<path id="Vector_6" d="M30.0913 60C24.8856 60 19.769 58.652 15.2414 56.0878C10.7138 53.5235 6.9301 49.8306 4.25997 45.37C1.58985 40.9094 0.124674 35.8336 0.00761112 30.6387C-0.109452 25.4438 1.1256 20.3074 3.59209 15.7315C3.65563 15.6137 3.74177 15.5097 3.84559 15.4252C3.94941 15.3407 4.06889 15.2775 4.1972 15.2391C4.32551 15.2007 4.46014 15.1879 4.5934 15.2015C4.72666 15.215 4.85594 15.2546 4.97386 15.318C5.09179 15.3815 5.19604 15.4674 5.28067 15.5711C5.36531 15.6747 5.42866 15.794 5.46712 15.922C5.50558 16.0501 5.51839 16.1845 5.50481 16.3175C5.49124 16.4506 5.45156 16.5796 5.38803 16.6973C2.15734 22.701 1.23087 29.6746 2.78223 36.3113C4.33359 42.948 8.2563 48.7921 13.8152 52.7486C19.3741 56.705 26.1877 58.5021 32.9789 57.8031C39.7702 57.1042 46.073 53.957 50.7062 48.9516C55.3393 43.9461 57.9848 37.4259 58.1469 30.6128C58.3089 23.7998 55.9764 17.1616 51.5864 11.9423C47.1964 6.72302 41.0503 3.28089 34.2999 2.261C27.5495 1.24111 20.6582 2.71346 14.9175 6.40213C14.69 6.54865 14.4135 6.59896 14.1489 6.54201C13.8843 6.48506 13.6532 6.32552 13.5064 6.09847C13.3596 5.87141 13.3092 5.59545 13.3662 5.33129C13.4233 5.06714 13.5831 4.83645 13.8106 4.68993C17.7409 2.19345 22.1987 0.643142 26.8322 0.161416C31.4656 -0.320311 36.1479 0.279738 40.5092 1.91417C44.8705 3.5486 48.7914 6.17266 51.9624 9.57919C55.1335 12.9857 57.4678 17.0814 58.7811 21.543C60.0943 26.0045 60.3506 30.7097 59.5296 35.2871C58.7087 39.8644 56.8329 44.1886 54.0506 47.9182C51.2682 51.6478 47.6553 54.6807 43.4973 56.7775C39.3392 58.8743 34.7497 59.9775 30.0913 60Z" fill="#FFB24B"/>
<path id="Vector_7" d="M30.0919 51.6145C29.9558 51.6145 29.8252 51.5606 29.729 51.4645C29.6328 51.3685 29.5787 51.2382 29.5787 51.1023C29.5787 50.9665 29.6328 50.8362 29.729 50.7402C29.8252 50.6441 29.9558 50.5901 30.0919 50.5901C33.996 50.5776 37.8175 49.4672 41.1184 47.3862C44.4193 45.3052 47.066 42.3378 48.7549 38.8242C48.8135 38.7023 48.9182 38.6084 49.0459 38.5632C49.1736 38.5179 49.3141 38.525 49.4366 38.5827C49.4978 38.611 49.5527 38.6511 49.5981 38.7008C49.6435 38.7505 49.6785 38.8088 49.701 38.8722C49.7236 38.9356 49.7332 39.0028 49.7293 39.07C49.7254 39.1371 49.7082 39.2029 49.6785 39.2633C47.9066 42.9514 45.1292 46.0664 41.6649 48.251C38.2006 50.4356 34.1896 51.6013 30.0919 51.6145Z" fill="#FFB24B"/>
<path id="Vector_8" d="M30.091 51.6144C25.3643 51.6281 20.7652 50.0849 17.0064 47.2241C16.9504 47.1837 16.9031 47.1324 16.8675 47.0733C16.8318 47.0142 16.8085 46.9485 16.7989 46.8801C16.7893 46.8118 16.7937 46.7422 16.8117 46.6756C16.8297 46.609 16.861 46.5467 16.9038 46.4924C16.9455 46.4379 16.9976 46.3922 17.0571 46.3578C17.1166 46.3235 17.1823 46.3013 17.2504 46.2924C17.3186 46.2836 17.3878 46.2883 17.4541 46.3063C17.5204 46.3243 17.5825 46.3552 17.6368 46.3973C21.2204 49.1135 25.5988 50.5789 30.0984 50.5681C30.2345 50.5681 30.365 50.6221 30.4612 50.7181C30.5574 50.8142 30.6115 50.9444 30.6115 51.0803C30.6115 51.2161 30.5574 51.3464 30.4612 51.4425C30.365 51.5385 30.2345 51.5925 30.0984 51.5925L30.091 51.6144Z" fill="#FFB24B"/>
<path id="Vector_9" d="M11.1635 39.9517C11.0684 39.9518 10.9751 39.926 10.8937 39.877C10.8122 39.828 10.7458 39.7576 10.7016 39.6736C9.29162 36.8658 8.51046 33.7853 8.41239 30.646C8.31432 27.5066 8.90168 24.3836 10.1337 21.4935C11.3658 18.6034 13.213 16.0155 15.5472 13.9093C17.8814 11.8032 20.6468 10.2291 23.6514 9.29644C26.656 8.36377 29.8279 8.09479 32.9471 8.50817C36.0662 8.92154 39.0579 10.0074 41.7146 11.6903C44.3714 13.3733 46.6294 15.6131 48.3322 18.2543C50.035 20.8955 51.1417 23.8749 51.5756 26.9857C51.5924 27.0553 51.5944 27.1276 51.5815 27.198C51.5686 27.2684 51.5411 27.3354 51.5007 27.3945C51.4603 27.4536 51.4079 27.5036 51.3469 27.5413C51.286 27.579 51.2178 27.6035 51.1468 27.6133C51.0757 27.623 51.0034 27.6178 50.9346 27.598C50.8657 27.5781 50.8017 27.5441 50.7468 27.4981C50.6919 27.4521 50.6473 27.3951 50.6158 27.3308C50.5843 27.2665 50.5667 27.1963 50.564 27.1248C49.8539 21.941 47.1968 17.2203 43.1309 13.9186C39.065 10.6168 33.894 8.98073 28.6651 9.34159C23.4361 9.70246 18.5399 12.0333 14.9679 15.8622C11.3958 19.6911 9.41489 24.7318 9.42616 29.9638C9.41964 33.1765 10.1731 36.3455 11.6253 39.2126C11.6845 39.3342 11.6939 39.4741 11.6515 39.6026C11.6091 39.731 11.5181 39.8379 11.398 39.9004C11.325 39.9358 11.2446 39.9534 11.1635 39.9517Z" fill="#FFB24B"/>
</g>
</g>
</svg>
